<svg width="191" height="196" viewBox="0 0 191 196" fill="none" xmlns="http://www.w3.org/2000/svg">
<path d="M75.8039 28.5666L61.5907 44.6873C61.5907 44.6873 40.863 37.867 28.4265 43.4472C15.9899 49.0274 24.8731 48.4074 13.0288 51.5075C1.18443 54.6077 0 55.2277 0 55.2277C0 55.2277 31.3876 62.048 20.1354 59.2578C8.88327 56.4677 35.5331 63.288 35.5331 63.288C35.5331 63.288 48.5619 92.7392 73.435 100.18C98.3082 107.62 121.268 110.41 124.366 115.99C127.464 121.57 156.938 179.233 156.938 179.233C156.938 179.233 129.104 101.42 145.686 125.601C162.268 149.782 192.471 213.024 186.549 190.393C180.626 167.762 148.647 110.72 148.647 110.72C148.647 110.72 108.239 99.5595 117.851 74.4485C127.464 49.3374 138.853 37.2469 127.464 48.7174C116.075 60.1879 102.454 76.6186 102.454 76.6186C102.454 76.6186 88.8327 89.6391 98.9004 84.0589C108.968 78.4786 116.075 69.4883 113.114 77.2386C110.153 84.9889 111.792 101.73 119.628 106.38C127.464 111.03 84.6872 101.42 68.1051 89.0191C51.523 76.6186 49.7463 73.8284 47.9697 67.0082C46.193 60.1879 52.1152 53.6776 52.1152 53.6776C52.1152 53.6776 62.7751 52.4376 60.9984 61.4279C59.2218 70.4183 76.3961 40.6571 77.5805 34.1468C78.765 27.6366 75.8039 28.5666 75.8039 28.5666Z" fill="black"/>
<path d="M84.6873 24.2264C84.6873 24.2264 167.006 -12.3551 155.753 4.38562C144.501 21.1263 142.725 20.8163 142.725 20.8163C142.725 20.8163 152.792 5.31566 146.87 7.48575C140.948 9.65584 153.977 5.31566 120.22 15.2361C86.4639 25.1565 84.6873 24.2264 84.6873 24.2264Z" fill="black"/>
<path d="M141.31 34.3214C143.547 35.7367 155.577 33.5237 168.18 29.3784C180.783 25.2331 189.187 20.7252 186.95 19.3099C184.714 17.8945 172.684 20.1076 160.08 24.2529C147.477 28.3982 139.073 32.906 141.31 34.3214Z" fill="black"/>
<path d="M139.621 42.1195C140.301 43.4648 151.826 43.7588 165.362 42.7762C178.898 41.7937 189.319 39.9066 188.639 38.5613C187.959 37.2161 176.435 36.9221 162.899 37.9046C149.362 38.8872 138.941 40.7743 139.621 42.1195Z" fill="black"/>
<path d="M139.605 52.3127C139.142 53.5933 149.441 55.0124 162.61 55.4824C175.778 55.9523 186.829 55.2951 187.292 54.0145C187.755 52.7339 177.455 51.3148 164.287 50.8449C151.118 50.375 140.068 51.0321 139.605 52.3127Z" fill="black"/>
<path d="M139.038 61.7071C137.693 62.9557 143.402 65.2517 151.789 66.8353C160.176 68.4189 168.065 68.6904 169.41 67.4418C170.754 66.1931 165.046 63.8972 156.659 62.3136C148.272 60.73 140.383 60.4584 139.038 61.7071Z" fill="black"/>
<path d="M135.876 72.4454C134.197 73.4577 138.628 75.968 145.774 78.0523C152.919 80.1367 160.072 81.0058 161.751 79.9935C163.43 78.9813 158.999 76.4709 151.853 74.3866C144.708 72.3022 137.555 71.4331 135.876 72.4454Z" fill="black"/>
<path d="M125.906 85.6156C124.82 87.2636 126.768 89.7066 130.258 91.0723C133.749 92.4379 137.459 92.2091 138.545 90.5612C139.632 88.9132 137.683 86.4702 134.193 85.1045C130.703 83.7388 126.993 83.9677 125.906 85.6156Z" fill="black"/>
</svg>
